HIERARCHY
ROOT joint_0
{
	OFFSET 0.000000 0.000000 0.000000
	CHANNELS 6 Xposition Yposition Zposition Zrotation Yrotation Xrotation 
	JOINT joint_1
	{
		OFFSET 14.113007 -2.961990 123.953979
		CHANNELS 3 Zrotation Yrotation Xrotation
		JOINT joint_2
		{
			OFFSET 0.764000 -2.434006 113.871948
			CHANNELS 3 Zrotation Yrotation Xrotation
			JOINT joint_3
			{
				OFFSET 0.186996 -2.169998 113.753052
				CHANNELS 3 Zrotation Yrotation Xrotation
				JOINT joint_4
				{
					OFFSET 16.096001 -2.720001 160.853027
					CHANNELS 3 Zrotation Yrotation Xrotation
					JOINT joint_5
					{
						OFFSET 34.392006 -0.188995 92.567017
						CHANNELS 3 Zrotation Yrotation Xrotation
						End Site
						{
							OFFSET 0.000000 0.000000 0.000000
						}
					}
				}
				JOINT joint_6
				{
					OFFSET 9.183998 -36.684006 89.597046
					CHANNELS 3 Zrotation Yrotation Xrotation
					JOINT joint_7
					{
						OFFSET 0.486000 -164.365997 -28.984009
						CHANNELS 3 Zrotation Yrotation Xrotation
						JOINT joint_8
						{
							OFFSET 38.899002 -34.967010 -291.651978
							CHANNELS 3 Zrotation Yrotation Xrotation
							JOINT joint_9
							{
								OFFSET 41.714005 -45.890991 -258.857056
								CHANNELS 3 Zrotation Yrotation Xrotation
								End Site
								{
									OFFSET 0.000000 0.000000 0.000000
								}
							}
						}
					}
				}
				JOINT joint_10
				{
					OFFSET 8.867004 33.650002 90.817993
					CHANNELS 3 Zrotation Yrotation Xrotation
					JOINT joint_11
					{
						OFFSET 0.018997 164.299999 -29.368042
						CHANNELS 3 Zrotation Yrotation Xrotation
						JOINT joint_12
						{
							OFFSET 29.440994 30.887997 -293.216919
							CHANNELS 3 Zrotation Yrotation Xrotation
							JOINT joint_13
							{
								OFFSET 46.174011 54.490005 -256.422058
								CHANNELS 3 Zrotation Yrotation Xrotation
								End Site
								{
									OFFSET 0.000000 0.000000 0.000000
								}
							}
						}
					}
				}
			}
		}
	}
	JOINT joint_14
	{
		OFFSET -2.264000 -89.466995 -116.150024
		CHANNELS 3 Zrotation Yrotation Xrotation
		JOINT joint_15
		{
			OFFSET -16.400993 -17.452988 -493.781982
			CHANNELS 3 Zrotation Yrotation Xrotation
			JOINT joint_16
			{
				OFFSET -50.497004 -13.404022 -424.754013
				CHANNELS 3 Zrotation Yrotation Xrotation
				JOINT joint_17
				{
					OFFSET 198.546007 -19.341003 -89.309000
					CHANNELS 3 Zrotation Yrotation Xrotation
					End Site
					{
						OFFSET 0.000000 0.000000 0.000000
					}
				}
			}
		}
	}
	JOINT joint_18
	{
		OFFSET -0.867996 96.016006 -110.817993
		CHANNELS 3 Zrotation Yrotation Xrotation
		JOINT joint_19
		{
			OFFSET -10.130997 24.658998 -493.645020
			CHANNELS 3 Zrotation Yrotation Xrotation
			JOINT joint_20
			{
				OFFSET -48.871004 19.434999 -424.714005
				CHANNELS 3 Zrotation Yrotation Xrotation
				JOINT joint_21
				{
					OFFSET 195.579996 24.926001 -94.327003
					CHANNELS 3 Zrotation Yrotation Xrotation
					End Site
					{
						OFFSET 0.000000 0.000000 0.000000
					}
				}
			}
		}
	}
}
MOTION
Frames: 15
Frame Time: 0.016667
247.216000 -197.521000 1139.390990 -7.361807 5.961827 -2.025506 -0.399458 1.181728 0.827594 -0.267845 -0.063751 -0.164826 -0.257245 0.273483 0.148696 -0.518296 -1.775018 1.353116 0.000000 0.000000 0.000000 2.917476 5.768185 -1.067005 0.207132 6.281389 2.199212 -0.682518 6.337801 3.731458 0.000000 0.000000 0.000000 -0.837001 5.938788 2.235002 0.567359 6.185061 0.250181 -0.227558 5.267543 -10.594821 0.000000 0.000000 0.000000 0.936114 2.596733 -0.890550 1.138902 1.209531 1.206063 1.359055 -2.249529 0.362826 0.000000 0.000000 0.000000 0.727128 -22.425791 7.039092 1.114202 45.679132 -1.742315 -4.732908 3.769061 -2.446078 0.000000 0.000000 0.000000 
264.437990 -198.460010 1138.791020 -7.792990 6.049289 -2.192854 -0.189264 1.755500 1.084011 0.050158 -0.193457 -0.220179 0.075820 0.337588 0.149037 -0.482779 -1.388328 1.252571 0.000000 0.000000 0.000000 3.334824 5.924609 -1.582033 0.227572 6.495275 2.203609 -0.652690 6.381644 4.082407 0.000000 0.000000 0.000000 -0.726221 6.093781 2.565301 0.447178 6.307248 0.191982 -0.379559 4.920796 -10.962657 0.000000 0.000000 0.000000 1.063336 3.289172 -0.957090 1.427341 1.410939 1.327196 1.650126 -2.191993 0.485503 0.000000 0.000000 0.000000 1.486811 -26.565925 7.089853 0.844996 51.756699 -1.312475 -6.709537 7.693990 -3.681855 0.000000 0.000000 0.000000 
282.562990 -199.130000 1137.589970 -8.294395 6.125077 -2.340533 0.059456 2.248157 1.283958 0.401146 -0.316993 -0.258198 0.443486 0.411113 0.161756 -0.449094 -1.031186 1.161156 0.000000 0.000000 0.000000 3.895228 6.109132 -2.151511 0.243976 6.762174 2.161397 -0.581577 6.271619 4.506074 0.000000 0.000000 0.000000 -0.685315 6.256656 2.914282 0.311619 6.452081 0.183703 -0.581311 4.461633 -11.514511 0.000000 0.000000 0.000000 1.093638 4.173752 -1.002219 1.684841 1.318733 1.312689 1.892332 -2.080446 0.591345 0.000000 0.000000 0.000000 2.451725 -30.050924 6.895638 0.817128 56.343365 -1.052647 -8.186862 8.637482 -4.297617 0.000000 0.000000 0.000000 
301.465000 -199.528000 1136.004030 -8.746459 6.225962 -2.431032 0.322953 2.617872 1.395668 0.749329 -0.396477 -0.258357 0.802453 0.491072 0.176640 -0.417678 -0.688032 1.078411 0.000000 0.000000 0.000000 4.519466 6.303880 -2.737807 0.249603 7.054010 2.041931 -0.476367 6.028999 4.974336 0.000000 0.000000 0.000000 -0.691394 6.408791 3.252608 0.166731 6.597320 0.241944 -0.817728 3.919862 -12.187586 0.000000 0.000000 0.000000 1.035305 5.148346 -1.095902 1.901477 1.079363 1.230057 2.087511 -1.925337 0.680657 0.000000 0.000000 0.000000 3.425568 -33.287615 6.461439 0.872632 60.014053 -0.945463 -9.261033 7.737960 -4.510600 0.000000 0.000000 0.000000 
320.851990 -199.606990 1134.583980 -9.093488 6.364973 -2.470313 0.573064 2.951997 1.448297 1.072712 -0.470464 -0.251156 1.133756 0.561191 0.185304 -0.394861 -0.431455 1.018606 0.000000 0.000000 0.000000 4.976768 6.416965 -3.097064 0.199285 7.242524 1.646895 -0.388210 5.791529 5.322301 0.000000 0.000000 0.000000 -0.721428 6.539866 3.413720 0.031545 6.724505 0.487329 -1.065159 3.316596 -12.819855 0.000000 0.000000 0.000000 0.984324 6.039880 -1.268833 2.099968 0.969434 1.151591 2.263016 -1.664897 0.771579 0.000000 0.000000 0.000000 4.131404 -36.271034 5.936865 0.801021 62.160620 -1.050695 -10.185192 6.294548 -4.624855 0.000000 0.000000 0.000000 
340.476010 -199.360000 1133.661010 -9.262001 6.592070 -2.420053 0.803942 3.258126 1.414396 1.350669 -0.540552 -0.241560 1.411317 0.612480 0.184023 -0.382055 -0.309232 0.983374 0.000000 0.000000 0.000000 5.184626 6.399273 -3.063958 0.056744 7.260958 0.775572 -0.328444 5.614136 5.538790 0.000000 0.000000 0.000000 -0.788453 6.636162 3.287618 -0.082134 6.817479 1.048268 -1.330599 2.615378 -13.390076 0.000000 0.000000 0.000000 0.974005 6.761975 -1.549624 2.261466 1.037889 1.100763 2.399330 -1.239658 0.862760 0.000000 0.000000 0.000000 4.451663 -39.057424 5.364045 0.502265 62.301177 -1.424138 -11.037396 4.809749 -4.758755 0.000000 0.000000 0.000000 
360.584010 -198.795000 1132.904050 -9.305791 6.866579 -2.313429 1.031979 3.510807 1.325911 1.590073 -0.594464 -0.229097 1.639406 0.651633 0.178455 -0.378053 -0.270804 0.970307 0.000000 0.000000 0.000000 5.251183 6.295694 -2.803878 -0.145687 7.172972 -0.384999 -0.288167 5.456594 5.637799 0.000000 0.000000 0.000000 -0.889393 6.714541 2.990292 -0.180520 6.895467 1.786574 -1.604163 1.849256 -13.918244 0.000000 0.000000 0.000000 0.993956 7.400128 -1.887887 2.389526 1.226703 1.054190 2.498226 -0.693916 0.950586 0.000000 0.000000 0.000000 4.422634 -41.492230 4.808681 0.009663 60.658324 -2.103572 -11.767894 3.102306 -4.869383 0.000000 0.000000 0.000000 
381.626010 -197.888000 1131.870970 -9.329539 7.077296 -2.246622 1.245312 3.722847 1.271544 1.796375 -0.634925 -0.222859 1.832307 0.683391 0.171895 -0.385443 -0.240630 0.987568 0.000000 0.000000 0.000000 5.247757 6.146836 -2.563771 -0.348834 7.035331 -1.454422 -0.290068 5.333954 5.497263 0.000000 0.000000 0.000000 -0.956778 6.814795 2.703057 -0.278712 6.990926 2.412763 -1.841657 1.144344 -14.300021 0.000000 0.000000 0.000000 1.080871 8.031915 -2.201564 2.528502 1.651790 1.015707 2.606900 -0.122861 1.043092 0.000000 0.000000 0.000000 4.027717 -43.250019 4.439729 -0.688306 57.612602 -3.027082 -12.511620 1.199808 -4.991858 0.000000 0.000000 0.000000 
403.592010 -196.475010 1130.646970 -9.302156 7.249802 -2.212235 1.438581 3.866353 1.238987 1.953368 -0.639755 -0.205569 1.971436 0.717728 0.165164 -0.406100 -0.255312 1.039045 0.000000 0.000000 0.000000 5.157230 5.924941 -2.410027 -0.545478 6.820437 -2.364520 -0.354252 5.278437 5.030006 0.000000 0.000000 0.000000 -0.975615 6.950204 2.484240 -0.398837 7.114449 2.804449 -2.046059 0.470781 -14.481660 0.000000 0.000000 0.000000 1.254307 8.656721 -2.495767 2.674542 2.269932 0.986339 2.725086 0.511989 1.143028 0.000000 0.000000 0.000000 3.090855 -44.189073 4.286305 -1.793226 52.596967 -4.254068 -13.442566 -0.953163 -5.185249 0.000000 0.000000 0.000000 
426.492000 -194.720000 1129.147950 -9.330582 7.325586 -2.239449 1.641070 4.036414 1.254476 2.099435 -0.672889 -0.200880 2.108421 0.752312 0.160186 -0.436961 -0.278080 1.117382 0.000000 0.000000 0.000000 4.994160 5.649910 -2.250757 -0.738836 6.543672 -3.206928 -0.461327 5.260423 4.323012 0.000000 0.000000 0.000000 -0.960504 7.108489 2.280199 -0.524122 7.255535 3.077094 -2.217088 -0.142607 -14.515897 0.000000 0.000000 0.000000 1.543229 9.300205 -2.749499 2.852726 3.116265 0.972430 2.881420 1.230366 1.263179 0.000000 0.000000 0.000000 1.790199 -44.142408 4.381915 -3.185137 45.472046 -5.425924 -13.921822 -2.665446 -5.258377 0.000000 0.000000 0.000000 
450.806000 -193.089000 1126.677980 -9.504357 7.178810 -2.395058 1.845754 4.203299 1.377508 2.245217 -0.751429 -0.241718 2.261931 0.777538 0.166143 -0.473474 -0.117597 1.212655 0.000000 0.000000 0.000000 4.862534 5.434865 -2.104498 -0.883744 6.325663 -3.823988 -0.574478 5.201349 3.509438 0.000000 0.000000 0.000000 -0.889278 7.292078 2.114460 -0.618124 7.414002 3.281866 -2.310159 -0.480742 -14.456047 0.000000 0.000000 0.000000 1.928602 10.000485 -2.892332 3.073225 4.405618 1.004123 3.095652 1.933610 1.397768 0.000000 0.000000 0.000000 0.594874 -43.144364 4.690244 -4.317097 37.940167 -5.929978 -13.375283 -3.701049 -4.965819 0.000000 0.000000 0.000000 
477.058990 -191.879000 1123.055050 -9.561677 6.939466 -2.595027 1.994846 3.975557 1.495946 2.295693 -0.674028 -0.253141 2.312512 0.765622 0.196456 -0.520411 0.353407 1.337833 0.000000 0.000000 0.000000 4.828118 5.367145 -2.028213 -0.955028 6.262746 -4.054849 -0.699077 5.083148 2.550217 0.000000 0.000000 0.000000 -0.738890 7.530120 2.034004 -0.682654 7.614443 3.388961 -2.314784 -0.481022 -14.312253 0.000000 0.000000 0.000000 2.333511 10.722840 -2.928128 3.230016 6.067500 1.102845 3.273837 2.722729 1.514418 0.000000 0.000000 0.000000 -0.523957 -41.229616 5.081962 -4.986904 30.171889 -5.585486 -11.824618 -5.451936 -4.143568 0.000000 0.000000 0.000000 
504.726990 -190.794010 1118.462040 -9.750385 6.492925 -2.887889 2.150982 3.708076 1.657789 2.341970 -0.614581 -0.274250 2.362338 0.731468 0.237586 -0.571218 1.002696 1.476756 0.000000 0.000000 0.000000 4.820317 5.359638 -1.981316 -0.982361 6.259871 -4.036764 -0.830891 4.913341 1.481187 0.000000 0.000000 0.000000 -0.524862 7.795196 2.024534 -0.714755 7.831094 3.390772 -2.240565 -0.206056 -14.067294 0.000000 0.000000 0.000000 2.850792 11.490729 -2.884892 3.417939 8.129487 1.270210 3.511858 3.660771 1.659855 0.000000 0.000000 0.000000 -1.447999 -38.426775 5.508868 -5.215832 22.062757 -4.573764 -9.783693 -6.875348 -3.126371 0.000000 0.000000 0.000000 
532.710020 -189.401000 1112.750000 -10.195590 5.706942 -3.265655 2.313159 3.743907 1.914516 2.414160 -0.734950 -0.387505 2.445379 0.709345 0.253536 -0.606421 1.639230 1.580038 0.000000 0.000000 0.000000 4.731802 5.268650 -1.850253 -0.998388 6.157407 -4.040114 -0.915461 4.641773 0.542959 0.000000 0.000000 0.000000 -0.283143 8.004736 2.025234 -0.669794 7.990374 3.358020 -2.072626 0.374874 -13.728643 0.000000 0.000000 0.000000 3.477379 12.194819 -2.855985 3.701936 10.904139 1.569320 3.878159 4.626901 1.849660 0.000000 0.000000 0.000000 -1.928613 -35.756391 5.765117 -5.036173 16.473276 -3.556476 -8.119142 -6.177866 -2.517389 0.000000 0.000000 0.000000 
561.112980 -187.224000 1105.208010 -10.527599 4.740309 -3.498291 2.327633 3.610664 1.911392 2.344091 -0.800511 -0.403061 2.376044 0.685585 0.220818 -0.609023 2.268532 1.605910 0.000000 0.000000 0.000000 4.529337 5.012141 -1.539809 -1.033799 5.871953 -4.211773 -0.977192 4.382204 -0.269946 0.000000 0.000000 0.000000 0.132817 8.175526 2.103779 -0.550847 8.088441 3.192465 -1.804496 1.291996 -13.299298 0.000000 0.000000 0.000000 4.096175 12.831980 -3.104234 3.956127 14.272324 2.198993 4.276083 5.966898 2.071495 0.000000 0.000000 0.000000 -2.182217 -34.083313 5.498060 -4.564057 15.425557 -3.093286 -7.081091 -2.827722 -2.531741 0.000000 0.000000 0.000000 
